# xmcd
#
# Track frame offsets: 
#        150
#        8940
#        22128
#        41418
#        50533
#        61658
#        76758
#        87240
#        100373
#        111245
#        120968
#        132830
#
# Disc length: 1975 seconds
#
# Revision: 0
# Processed by: cddbd v1.5.1PL0 Copyright (c) Steve Scherf et al.
# Submitted via: ExactAudioCopy v0.95b2
#
DISCID=8f07b50c
DTITLE=Lewis Grizzard - Alimony
DYEAR=1994
DGENRE=Comedy
TTITLE0=Alimony
TTITLE1=Grandma Willie's Yard
TTITLE2=Daddy's Tennessee Waltz
TTITLE3=Damn, Brother!
TTITLE4=Mama's Old Brown Hymnal
TTITLE5=Absent Friends
TTITLE6=Black Cord Fever
TTITLE7=The Red, White and Bluz
TTITLE8=It's Always Midnight On My VCR
TTITLE9=Whatever Makes Your Grapefruit Squirt!
TTITLE10=I'm Gonna Cut A Big One
TTITLE11=A Bulldog's Prayer
EXTD=
EXTT0=
EXTT1=
EXTT2=
EXTT3=
EXTT4=
EXTT5=
EXTT6=
EXTT7=
EXTT8=
EXTT9=
EXTT10=
EXTT11=
PLAYORDER=
